<svg width="76" height="127" viewBox="0 0 76 127" fill="none" xmlns="http://www.w3.org/2000/svg">
<path d="M65.281 53.9242C65.281 36.6802 51.3356 22.6348 33.8871 21.9916C33.5877 21.9784 33.2928 21.9741 32.9935 21.9697C32.8773 21.9697 32.7567 21.9609 32.6405 21.9609H32.6137H32.5824C23.8604 21.9609 15.9203 24.9538 10.2323 30.3926C8.79796 31.7621 7.52898 33.2717 6.41639 34.8906C2.38604 40.2069 0 46.7877 0 53.9242C0 71.5752 14.6111 85.8875 32.6405 85.8875C37.3992 85.8875 51.9522 84.5793 51.9522 100.178C51.9522 113.576 36.4385 114.617 31.8943 114.617C22.645 114.617 12.7613 110.824 12.7613 100.178V99.0535C12.7613 98.4235 12.2385 97.9071 11.5951 97.9071H1.16621C0.522784 97.9071 0 98.4191 0 99.0535L0 100.178C0 108.343 3.30203 115.234 9.54416 120.117C15.2233 124.554 23.1589 127 31.8943 127C51.3401 127 64.5929 116.473 64.5929 100.182C64.5929 91.1338 60.4285 83.8529 52.7073 79.123C60.357 73.2729 65.281 64.163 65.281 53.9242ZM52.7922 53.9242C52.7922 64.8237 43.7664 73.6579 32.6405 73.6579C21.5101 73.6579 12.4887 64.8193 12.4887 53.9242C12.4887 48.4154 14.7943 43.4405 18.5074 39.8613C20.2098 38.0323 22.3323 36.6365 24.8345 35.7264C27.2339 34.7375 29.8702 34.1906 32.6405 34.1906C43.7709 34.1862 52.7922 43.0248 52.7922 53.9242Z" fill="white"/>
<path d="M50 5.25065C50 8.15163 52.3994 10.5013 55.3618 10.5013L62.9757 10.5013C64.2446 10.5013 65.2723 11.512 65.2723 12.7503V20.2019C65.2723 23.1028 67.6762 25.4569 70.6386 25.4569C73.5966 25.4569 76.0005 23.1072 76.0005 20.2019V2.62095C76.0005 1.17264 74.803 0 73.3195 0L55.3618 0C52.3994 0 50 2.35404 50 5.25065Z" fill="#499ED7"/>
</svg>
