<svg width="24" height="40" viewBox="0 0 24 40" fill="none" xmlns="http://www.w3.org/2000/svg">
<path d="M20.2119 16.9865C20.2119 11.5551 15.8943 7.13118 10.4919 6.92859C10.3993 6.92446 10.308 6.92308 10.2153 6.9217C10.1793 6.9217 10.1419 6.91895 10.106 6.91895H10.0977H10.088C7.38753 6.91895 4.92917 7.86161 3.16806 9.57468C2.72398 10.006 2.33108 10.4815 1.98661 10.9914C0.738753 12.6659 0 14.7387 0 16.9865C0 22.546 4.52382 27.054 10.106 27.054C11.5793 27.054 16.0852 26.6419 16.0852 31.5551C16.0852 35.7751 11.2819 36.1031 9.87494 36.1031C7.01123 36.1031 3.95108 34.9082 3.95108 31.5551V31.2009C3.95108 31.0025 3.78922 30.8398 3.59001 30.8398H0.361076C0.161862 30.8398 0 31.0011 0 31.2009V31.5551C0 34.1268 1.02236 36.2974 2.95501 37.8354C4.71335 39.2329 7.17033 40.0033 9.87494 40.0033C15.8956 40.0033 19.9989 36.6874 19.9989 31.5565C19.9989 28.7064 18.7095 26.4132 16.319 24.9234C18.6874 23.0807 20.2119 20.2114 20.2119 16.9865ZM16.3453 16.9865C16.3453 20.4195 13.5507 23.202 10.106 23.202C6.65984 23.202 3.86669 20.4181 3.86669 16.9865C3.86669 15.2514 4.58054 13.6844 5.73018 12.557C6.25726 11.981 6.91439 11.5413 7.68912 11.2547C8.43202 10.9432 9.24824 10.7709 10.106 10.7709C13.5521 10.7696 16.3453 13.5535 16.3453 16.9865Z" fill="#002095"/>
<path d="M15.4805 1.6538C15.4805 2.56753 16.2234 3.30761 17.1406 3.30761H19.498C19.8909 3.30761 20.209 3.62596 20.209 4.01599V6.36301C20.209 7.27674 20.9533 8.01819 21.8705 8.01819C22.7864 8.01819 23.5307 7.27811 23.5307 6.36301V0.825524C23.5307 0.369349 23.1599 0 22.7006 0H17.1406C16.2234 0 15.4805 0.741455 15.4805 1.6538Z" fill="#499ED7"/>
</svg>
